<svg width="64" height="43" viewBox="0 0 64 43" fill="none" xmlns="http://www.w3.org/2000/svg">
<path d="M3.30556 15.3889H5.77778L4.52778 12.3889L3.30556 15.3889ZM20.5556 30L22.6111 27.8056L20.6667 25.6111H16.1389V26.9722H20.0833V28.5H16.1389V30H20.5556ZM24.9444 27.8333L27.6944 30.8889V24.8611L24.9444 27.8333ZM32.9444 26.5278C32.9444 25.9167 32.5741 25.6111 31.8333 25.6111H29.5V27.5278H31.8056C32.5648 27.5278 32.9444 27.1944 32.9444 26.5278ZM40.9722 26.4167C40.9722 25.8796 40.5833 25.6111 39.8056 25.6111H37.5278V27.3056H39.7778C40.5741 27.3056 40.9722 27.0093 40.9722 26.4167ZM33.25 13.4722C33.25 12.9352 32.8611 12.6667 32.0833 12.6667H29.8056V14.3333H32.0556C32.8519 14.3333 33.25 14.0463 33.25 13.4722ZM46 15.3889H48.4722L47.25 12.3889L46 15.3889ZM19.4167 11.0833V18.6111H17.5833V12.7222L14.9722 18.6111H13.3889L10.7778 12.7222V18.6111H7.11111L6.41667 16.9444H2.66667L1.97222 18.6111H0.0277778L3.25 11.0833H5.91667L8.97222 18.2222V11.0833H11.9167L14.2778 16.1944L16.4167 11.0833H19.4167ZM34.8611 26.5278C34.8611 26.8981 34.8102 27.2222 34.7083 27.5C34.6065 27.7778 34.4769 28.0093 34.3194 28.1944C34.162 28.3796 33.9537 28.5324 33.6944 28.6528C33.4352 28.7731 33.1944 28.8657 32.9722 28.9306C32.75 28.9954 32.4583 29.037 32.0972 29.0556C31.7361 29.0741 31.4444 29.0833 31.2222 29.0833C31 29.0833 30.6991 29.0787 30.3194 29.0694C29.9398 29.0602 29.6667 29.0556 29.5 29.0556V31.5833H26L23.7778 29.0833L21.4722 31.5833H14.3611V24.0556H21.5833L23.8056 26.5278L26.0833 24.0556H31.8333C33.8519 24.0556 34.8611 24.8796 34.8611 26.5278ZM26.7778 17.0556V18.6111H20.75V11.0833H26.7778V12.6667H22.5556V14.0278H26.6667V15.5556H22.5556V17.0556H26.7778ZM64 32.5833V38.9444C64 39.963 63.6435 40.838 62.9306 41.5694C62.2176 42.3009 61.3519 42.6667 60.3333 42.6667H3.66667C2.64815 42.6667 1.78241 42.3009 1.06944 41.5694C0.356482 40.838 0 39.963 0 38.9444V20.1111H3.08333L3.77778 18.4167H5.30556L6 20.1111H12.0556V18.8333L12.5833 20.1111H15.7222L16.2778 18.8056V20.1111H31.3056V17.3611L31.5833 17.3333C31.7685 17.3333 31.8611 17.463 31.8611 17.7222V20.1111H39.6111V19.4722C40.037 19.6944 40.5463 19.8611 41.1389 19.9722C41.7315 20.0833 42.2176 20.1435 42.5972 20.1528C42.9769 20.162 43.5602 20.1574 44.3472 20.1389C45.1343 20.1204 45.6111 20.1111 45.7778 20.1111L46.4722 18.4167H48.0278L48.7222 20.1111H55.0278V18.5L55.9722 20.1111H61.0278V9.61111H56.0278V10.8333L55.3333 9.61111H50.1944V10.8333L49.5556 9.61111H42.6389C41.3611 9.61111 40.3519 9.81481 39.6111 10.2222V9.61111H34.8333V10.2222C34.3889 9.81481 33.713 9.61111 32.8056 9.61111H15.3611L14.1667 12.3056L12.9722 9.61111H7.47222V10.8333L6.86111 9.61111H2.16667L0 14.5833V3.72222C0 2.7037 0.356482 1.8287 1.06944 1.09722C1.78241 0.365741 2.64815 0 3.66667 0H60.3333C61.3519 0 62.2176 0.365741 62.9306 1.09722C63.6435 1.8287 64 2.7037 64 3.72222V22.5556H60.6667C59.7222 22.5556 58.9722 22.7593 58.4167 23.1667V22.5556H53.5C52.4815 22.5556 51.7593 22.7593 51.3333 23.1667V22.5556H42.5556V23.1667C41.9815 22.7593 41.1759 22.5556 40.1389 22.5556H34.3333V23.1667C33.9074 22.7593 33.0648 22.5556 31.8056 22.5556H25.3056L23.8056 24.1667L22.4167 22.5556H12.7222V33.0556H22.25L23.7778 31.4167L25.2222 33.0556H31.0833V30.5833H31.6667C32.7593 30.5833 33.5926 30.463 34.1667 30.2222V33.0556H39V30.3056H39.2222C39.3704 30.3056 39.463 30.3241 39.5 30.3611C39.537 30.3981 39.5556 30.4907 39.5556 30.6389V33.0556H54.25C55.3056 33.0556 56.1204 32.8333 56.6944 32.3889V33.0556H61.3611C62.4722 33.0556 63.3519 32.8981 64 32.5833ZM42.9444 26.0833C42.9444 26.5093 42.8333 26.9074 42.6111 27.2778C42.3889 27.6481 42.0741 27.9167 41.6667 28.0833C42.1296 28.25 42.4444 28.4907 42.6111 28.8056C42.7778 29.1204 42.8611 29.5463 42.8611 30.0833V31.5833H41.0556V30.3333C41.0556 29.7222 40.9444 29.3194 40.7222 29.125C40.5 28.9306 40.0741 28.8333 39.4444 28.8333H37.5278V31.5833H35.7222V24.0556H40C40.8889 24.0556 41.6019 24.1944 42.1389 24.4722C42.6759 24.75 42.9444 25.287 42.9444 26.0833ZM35.25 13.1111C35.25 13.5556 35.1343 13.963 34.9028 14.3333C34.6713 14.7037 34.3611 14.9722 33.9722 15.1389C34.4537 15.3056 34.7731 15.5417 34.9306 15.8472C35.088 16.1528 35.1667 16.5833 35.1667 17.1389V18.6111H33.3611C33.3611 18.4444 33.3657 18.1991 33.375 17.875C33.3843 17.5509 33.3843 17.3194 33.375 17.1806C33.3657 17.0417 33.338 16.8704 33.2917 16.6667C33.2454 16.463 33.1667 16.3148 33.0556 16.2222C32.9444 16.1296 32.7824 16.0509 32.5694 15.9861C32.3565 15.9213 32.0833 15.8889 31.75 15.8889H29.8056V18.6111H28.0278V11.0833L32.2778 11.1111C33.1852 11.1111 33.9074 11.2454 34.4444 11.5139C34.9815 11.7824 35.25 12.3148 35.25 13.1111ZM49.9444 30.0278V31.5833H43.9444V24.0556H49.9444V25.6111H45.75V26.9722H49.8611V28.5H45.75V30L49.9444 30.0278ZM38.1111 11.0833V18.6111H36.2778V11.0833H38.1111ZM57.3611 29.1944C57.3611 30.787 56.4167 31.5833 54.5278 31.5833H51.0278V29.9722H54.5278C55.1574 29.9722 55.4722 29.7407 55.4722 29.2778C55.4722 28.9815 55.3148 28.787 55 28.6944C54.6852 28.6019 54.3009 28.5556 53.8472 28.5556C53.3935 28.5556 52.9352 28.5231 52.4722 28.4583C52.0093 28.3935 51.6204 28.1852 51.3056 27.8333C50.9907 27.4815 50.8333 26.9722 50.8333 26.3056C50.8333 25.5833 51.0741 25.0278 51.5556 24.6389C52.037 24.25 52.6481 24.0556 53.3889 24.0556H57V25.6389H53.6944C53.0278 25.6389 52.6944 25.8704 52.6944 26.3333C52.6944 26.6296 52.8565 26.8194 53.1806 26.9028C53.5046 26.9861 53.8935 27.0231 54.3472 27.0139C54.8009 27.0046 55.2546 27.0278 55.7083 27.0833C56.162 27.1389 56.5509 27.338 56.875 27.6806C57.1991 28.0231 57.3611 28.5278 57.3611 29.1944ZM64 27.8056V30.6111C63.5556 31.2593 62.7407 31.5833 61.5556 31.5833H58.0833V29.9722H61.5556C62.1667 29.9722 62.4722 29.7407 62.4722 29.2778C62.4722 29.037 62.3565 28.8611 62.125 28.75C61.8935 28.6389 61.6065 28.588 61.2639 28.5972C60.9213 28.6065 60.5509 28.588 60.1528 28.5417C59.7546 28.4954 59.3843 28.4213 59.0417 28.3194C58.6991 28.2176 58.412 27.9954 58.1806 27.6528C57.9491 27.3102 57.8333 26.8611 57.8333 26.3056C57.8333 25.5833 58.0787 25.0278 58.5694 24.6389C59.0602 24.25 59.6759 24.0556 60.4167 24.0556H64V25.6389H60.7222C60.0556 25.6389 59.7222 25.8704 59.7222 26.3333C59.7222 26.7037 59.9907 26.9074 60.5278 26.9444C61.0648 26.9815 61.6991 27.0278 62.4306 27.0833C63.162 27.1389 63.6852 27.3796 64 27.8056ZM59.4167 11.1111V18.6111H56.8611L53.4722 12.9722V18.6111H49.8056L49.0833 16.9444H45.3611L44.6667 18.6111H42.5833C40.1944 18.6111 39 17.3796 39 14.9167C39 12.3611 40.2315 11.0833 42.6944 11.0833H44.4444V12.7222C44.3148 12.7222 44.0556 12.713 43.6667 12.6944C43.2778 12.6759 43.0139 12.6713 42.875 12.6806C42.7361 12.6898 42.5231 12.7083 42.2361 12.7361C41.9491 12.7639 41.75 12.8241 41.6389 12.9167C41.5278 13.0093 41.3935 13.1343 41.2361 13.2917C41.0787 13.4491 40.9722 13.662 40.9167 13.9306C40.8611 14.1991 40.8333 14.5093 40.8333 14.8611C40.8333 15.5648 40.9583 16.1019 41.2083 16.4722C41.4583 16.8426 41.9167 17.0278 42.5833 17.0278H43.3889L45.9444 11.1111H48.6389L51.6667 18.2222V11.1111H54.4167L57.5833 16.3333V11.1111H59.4167Z" fill="url(#paint0_linear_11_10)"/>
<defs>
<linearGradient id="paint0_linear_11_10" x1="32" y1="0" x2="32" y2="42.6667" gradientUnits="userSpaceOnUse">
<stop stop-color="#FAFAFA"/>
<stop offset="1" stop-color="white"/>
</linearGradient>
</defs>
</svg>
