<svg width="64" height="40" viewBox="0 0 64 40" fill="none" xmlns="http://www.w3.org/2000/svg">
<path d="M23.3245 4.22574H40.612V35.2885H23.3245V4.22574Z" fill="#FF5F00"/>
<path d="M24.4223 19.7572C24.4223 13.446 27.3858 7.848 31.9408 4.22575C28.5933 1.5915 24.3675 0 19.7575 0C8.83575 0 0 8.83575 0 19.7572C0 30.6785 8.83575 39.5145 19.7572 39.5145C24.3672 39.5145 28.593 37.923 31.9408 35.2885C27.3858 31.7213 24.4223 26.0685 24.4223 19.7572V19.7572Z" fill="#EB001B"/>
<path d="M63.9365 19.7572C63.9365 30.6785 55.1007 39.5145 44.1792 39.5145C39.5692 39.5145 35.3435 37.923 31.9957 35.2885C36.6057 31.6665 39.5145 26.0685 39.5145 19.7572C39.5145 13.446 36.5507 7.848 31.9957 4.22575C35.3432 1.5915 39.5692 0 44.1792 0C55.1007 0 63.9367 8.89075 63.9367 19.7572H63.9365Z" fill="#F79E1B"/>
</svg>
