<svg width="55" height="17" viewBox="0 0 55 17" fill="none" xmlns="http://www.w3.org/2000/svg">
<path d="M39.9818 0.696343C38.7036 0.226591 37.3525 -0.00913324 35.9921 0.00027065C31.5928 0.00027065 28.4857 2.23547 28.4637 5.44407C28.4362 7.80129 30.6716 9.12965 32.3626 9.91724C34.0976 10.727 34.6778 11.2373 34.6723 11.9611C34.6613 13.0621 33.2865 13.5612 32.0079 13.5612C30.251 13.5612 29.2914 13.3144 27.8148 12.696L27.2677 12.4381L26.6435 16.132C27.7131 16.5812 29.6406 16.9667 31.6313 17C36.3083 17 39.3658 14.7787 39.4016 11.3649C39.4401 9.48185 38.2303 8.05919 35.6841 6.88336C34.1361 6.12073 33.1765 5.61046 33.1765 4.83673C33.1765 4.15175 33.9986 3.41963 35.7171 3.41963C36.8609 3.39172 37.9975 3.60814 39.0524 4.05469L39.4648 4.2405L40.089 0.671385L39.9818 0.696343ZM51.398 0.299776H47.9611C46.8915 0.299776 46.0858 0.596509 45.6184 1.66696L39.0084 16.7698H43.6854L44.6203 14.2934L50.3285 14.2989C50.4632 14.8785 50.8756 16.7698 50.8756 16.7698H55L51.398 0.299776ZM22.1369 0.161115H26.594L23.8059 16.6395H19.3543L22.1369 0.155569V0.161115ZM10.8224 9.24335L11.2843 11.5312L15.6397 0.299776H20.3607L13.3465 16.7476H8.63645L4.78703 2.82062C4.72469 2.59097 4.57827 2.39374 4.37734 2.26875C2.9899 1.54588 1.51982 0.997313 0 0.635332L0.0604908 0.288681H7.23416C8.20752 0.327506 8.99115 0.635332 9.25236 1.6836L10.8196 9.25167V9.24335H10.8224ZM45.8989 10.9239L47.6751 6.31485C47.6531 6.36477 48.0408 5.36364 48.2663 4.74522L48.5715 6.16787L49.6026 10.9211H45.8961V10.9239H45.8989Z" fill="url(#paint0_linear_5_26)"/>
<defs>
<linearGradient id="paint0_linear_5_26" x1="3.95941" y1="-3.86526e-06" x2="55.5191" y2="17.0402" gradientUnits="userSpaceOnUse">
<stop stop-color="#D9D9D9"/>
<stop offset="1" stop-color="#FAFAFA"/>
</linearGradient>
</defs>
</svg>
